<?xml version="1.0" standalone="no"?>
<!DOCTYPE svg PUBLIC "-//W3C//DTD SVG 20010904//EN"
 "http://www.w3.org/TR/2001/REC-SVG-20010904/DTD/svg10.dtd">
<svg version="1.0" xmlns="http://www.w3.org/2000/svg"
 width="700.000000pt" height="700.000000pt" viewBox="0 0 700.000000 700.000000"
 preserveAspectRatio="xMidYMid meet">
<metadata>
Created by potrace 1.14, written by Peter Selinger 2001-2017
</metadata>
<g transform="translate(0.000000,700.000000) scale(0.100000,-0.100000)"
fill="#000000" stroke="none">
<path d="M3415 6817 c-70 -23 -111 -54 -157 -117 -46 -64 -50 -90 -53 -348 -2
-134 -5 -245 -6 -247 -2 -2 -22 -6 -44 -9 -344 -53 -620 -143 -897 -293 -118
-64 -300 -182 -373 -242 -27 -23 -54 -41 -60 -41 -5 0 -82 73 -170 161 -88 88
-178 171 -200 184 -73 43 -165 51 -245 22 -73 -26 -130 -75 -166 -139 -26 -47
-29 -63 -29 -138 0 -123 16 -149 218 -352 92 -93 167 -175 167 -182 0 -7 -16
-34 -36 -60 -192 -252 -394 -726 -439 -1031 -4 -22 -8 -47 -10 -55 -2 -8 -7
-35 -10 -60 -11 -83 10 -76 -233 -77 -255 0 -287 -4 -354 -40 -98 -53 -151
-145 -151 -260 0 -59 5 -82 28 -127 45 -89 121 -147 215 -164 25 -5 139 -8
254 -8 125 1 214 -3 222 -9 7 -5 15 -29 18 -52 3 -24 9 -62 12 -85 3 -24 19
-99 35 -167 87 -356 216 -632 457 -970 11 -16 -5 -35 -146 -177 -86 -87 -168
-173 -180 -191 -157 -222 53 -524 317 -457 74 19 94 35 278 217 l162 160 78
-59 c228 -174 482 -308 743 -394 165 -54 237 -73 365 -95 17 -3 37 -8 45 -10
8 -2 42 -7 75 -11 33 -3 63 -7 66 -10 3 -2 6 -106 7 -231 0 -210 2 -233 22
-287 29 -77 78 -129 154 -166 54 -25 72 -29 132 -27 101 4 175 43 236 127 47
65 51 90 53 343 1 131 5 240 8 243 3 4 23 8 43 10 21 2 61 8 89 14 28 6 65 13
81 16 69 12 228 56 320 88 267 93 516 226 738 395 37 28 72 51 77 49 5 -2 84
-78 176 -169 92 -91 185 -173 205 -183 116 -53 246 -33 333 50 70 68 90 114
90 214 0 126 -16 151 -217 353 -92 93 -168 172 -168 176 0 4 21 36 47 71 91
125 202 321 274 485 78 179 162 474 185 650 3 28 8 52 10 54 2 2 111 5 241 6
258 2 296 7 360 54 195 141 158 437 -65 521 -52 20 -77 22 -294 23 -208 1
-238 3 -239 16 -8 160 -100 527 -174 696 -104 240 -152 325 -328 586 l-17 26
153 154 c84 85 164 170 179 189 67 89 76 223 21 322 -82 147 -272 195 -418
107 -16 -10 -102 -91 -191 -179 l-161 -160 -99 73 c-347 259 -748 428 -1165
493 l-106 16 -1 227 c0 124 -3 241 -6 260 -16 81 -82 168 -159 207 -60 31
-163 40 -222 21z"/>
</g>
</svg>
